<?xml version="1.0" encoding="UTF-8"?>
<svg id="UBF_Logo" xmlns="http://www.w3.org/2000/svg" version="1.1" viewBox="0 0 512 512">
  <!-- Generator: Adobe Illustrator 30.5.1, SVG Export Plug-In . SVG Version: 2.1.4 Build 3)  -->
  <defs>
    <style>
      .st0 {
        fill: #fff;
      }

      .st1 {
        fill: #0043a5;
      }
    </style>
  </defs>
  <rect class="st0" width="512" height="512"/>
  <g>
    <path class="st1" d="M294.49,350.96h-37.71v-102.37c0-18.22,14.69-33.03,32.89-33.03h89.18v32.95h-79.07c-2.9,0-5.28,2.36-5.28,5.27v10.22h84.36v31.67h-84.36v55.3h-.01Z"/>
    <path class="st1" d="M305.66,97.87c-65.94,0-133.39,29.65-163.87,79.08h7.39c30.43-38.07,80.9-63.25,139.64-63.25,93.64,0,169.55,58.86,169.55,142.3s-77.56,142.32-169.55,142.32c-50.34,0-97.45-16.61-126.35-47.85h47.68c18.22,0,32.9-14.78,32.9-33.02v-9.56c0-18.22-7.79-22.34-19.7-27.31,10.44-2.08,19.78-7.68,19.78-27.02v-4.98c0-18.22-14.68-33.03-32.9-33.03h-96.24v87.29c0,12.15-9.93,22-22.08,22h-27.81c-12.16,0-22.01-9.85-22.01-22v-87.29h-24.12v87.81c0,26.22,21.37,47.55,47.59,47.55h25.89c26.23,0,47.62-21.32,47.62-47.55v-63.68h65.73c2.9,0,5.28,2.38,5.28,5.29v16.44c0,2.9-2.38,5.28-5.28,5.28h-50.15v25.5h50.14c2.9,0,5.28,2.37,5.28,5.26v21.8c0,2.89-2.38,5.27-5.28,5.27h-50.22v25.88h0c30.24,40.41,89.21,63.73,151.08,63.73,104.03,0,188.38-70.78,188.38-158.12s-84.35-158.14-188.38-158.14h.01Z"/>
  </g>
</svg>