<?xml version="1.0" encoding="UTF-8"?>
<svg xmlns="http://www.w3.org/2000/svg" version="1.1" viewBox="0 0 512 512">
  <!-- Generator: Adobe Illustrator 30.6.0, SVG Export Plug-In . SVG Version: 2.1.4 Build 109)  -->
  <defs>
    <style>
      .st0 {
        fill: none;
      }

      .st1 {
        fill: #234575;
      }
    </style>
  </defs>
  <g id="BG">
    <rect class="st0" width="512" height="512"/>
  </g>
  <g id="UBF_Logo_-_White">
    <g>
      <path class="st1" d="M374.15,213.15h-26.12v82.93c0,11.68-9.55,21.15-21.23,21.15h-22.74c-11.69,0-21.16-9.47-21.16-21.15v-82.93h-25.18v84.43c0,25.22,20.55,44.69,45.76,44.69h24.89c25.22,0,45.78-19.46,45.78-44.69v-84.43Z"/>
      <path class="st1" d="M298.88,100.01h0c-63.4,0-128.25,28.5-157.56,76.02h7.11c29.26-36.61,77.78-60.81,134.26-60.81,90.04,0,163.02,56.59,163.02,136.82s-74.58,136.84-163.02,136.84c-48.4,0-93.69-16.58-121.48-46.6h45.84c17.51,0,31.63-13.6,31.63-31.15v-9.19c0-17.51-7.49-21.48-18.94-26.26,10.03-1.99,19.02-7.39,19.02-25.98v-4.79c0-17.51-14.12-31.76-31.63-31.76h-57.59s-72.92-.77-72.92-.77c-25.22,0-46.6,21.32-46.6,46.53v37.78c0,25.22,20.77,45.58,46,45.58h66.58v-24.79h-66.08c-11.68,0-21.15-8.68-21.15-20.36v-39.63c0-11.69,9.57-21.16,21.25-21.16h72.37v.02h52.92c2.79,0,5.08,2.29,5.08,5.09v15.81c0,2.79-2.29,5.08-5.08,5.08h-48.21v24.51h48.21c2.79,0,5.08,2.28,5.08,5.06v20.96c0,2.78-2.29,4.63-5.08,4.63h-48.29v24.79c29.07,38.85,85.77,61.81,145.27,61.81,100.03,0,181.12-68.05,181.12-152.03s-81.1-152.04-181.12-152.04Z"/>
    </g>
  </g>
</svg>