<?xml version="1.0" encoding="UTF-8"?>
<svg id="UBF_Logo_-_White" data-name="UBF Logo - White" xmlns="http://www.w3.org/2000/svg" viewBox="0 0 512 512">
  <defs>
    <style>
      .cls-1 {
        fill: none;
      }

      .cls-2 {
        fill: #234575;
      }
    </style>
  </defs>
  <rect class="cls-1" width="512" height="512"/>
  <g>
    <path class="cls-2" d="M293.32,348.08h-36.57v-99.26c0-17.66,14.25-32.03,31.89-32.03h86.47v31.94h-76.67c-2.81,0-5.12,2.29-5.12,5.11v9.91h81.79v30.71h-81.79v53.62Z"/>
    <path class="cls-2" d="M304.15,102.67c-63.94,0-129.34,28.75-158.9,76.68h7.17c29.51-36.92,78.44-61.33,135.4-61.33,90.8,0,164.4,57.07,164.4,137.98s-75.21,138-164.4,138c-48.81,0-94.49-16.11-122.51-46.39h46.23c17.66,0,31.9-14.33,31.9-32.02v-9.27c0-17.66-7.55-21.66-19.1-26.48,10.12-2.01,19.18-7.45,19.18-26.2v-4.83c0-17.66-14.24-32.03-31.9-32.03h-93.32v84.64c0,11.78-9.63,21.33-21.41,21.33h-26.97c-11.79,0-21.34-9.55-21.34-21.33v-84.64h-23.38v85.15c0,25.43,20.72,46.11,46.15,46.11h25.1c25.43,0,46.17-20.67,46.17-46.11v-61.75h63.74c2.81,0,5.12,2.31,5.12,5.13v15.94c0,2.81-2.31,5.12-5.12,5.12h-48.62v24.72h48.62c2.81,0,5.12,2.3,5.12,5.1v21.14c0,2.8-2.31,5.11-5.12,5.11h-48.7v25.1h0c29.32,39.18,86.5,61.79,146.5,61.79,100.88,0,182.66-68.63,182.66-153.32,0-88.29-81.79-153.33-182.66-153.33Z"/>
  </g>
</svg>